<?xml version="1.0" encoding="UTF-8" standalone="no"?>
<!DOCTYPE svg PUBLIC "-//W3C//DTD SVG 1.1//EN"
 "http://www.w3.org/Graphics/SVG/1.1/DTD/svg11.dtd">
<!-- Generated by graphviz version 2.26.3 (20100126.1600)
 -->
<!-- Title: G Pages: 1 -->
<svg width="308pt" height="182pt"
 viewBox="0.00 0.00 308.00 182.00" xmlns="http://www.w3.org/2000/svg" xmlns:xlink="http://www.w3.org/1999/xlink">
<g id="graph1" class="graph" transform="scale(1 1) rotate(0) translate(4 178)">
<title>G</title>
<polygon fill="white" stroke="white" points="-4,5 -4,-178 305,-178 305,5 -4,5"/>
<g id="graph2" class="cluster"><title>cluster_Cloud</title>
<polyline fill="none" stroke="gray" points="194,-8 280,-8 "/>
<path fill="none" stroke="gray" d="M280,-8C286,-8 292,-14 292,-20"/>
<polyline fill="none" stroke="gray" points="292,-20 292,-154 "/>
<path fill="none" stroke="gray" d="M292,-154C292,-160 286,-166 280,-166"/>
<polyline fill="none" stroke="gray" points="280,-166 194,-166 "/>
<path fill="none" stroke="gray" d="M194,-166C188,-166 182,-160 182,-154"/>
<polyline fill="none" stroke="gray" points="182,-154 182,-20 "/>
<path fill="none" stroke="gray" d="M182,-20C182,-14 188,-8 194,-8"/>
<text text-anchor="middle" x="237" y="-152.1" font-family="Times Roman,serif" font-size="11.00" fill="gray">Cloud</text>
</g>
<g id="graph3" class="cluster"><title>cluster_Cloud\Server</title>
<polyline fill="none" stroke="gray" points="202,-62 272,-62 "/>
<path fill="none" stroke="gray" d="M272,-62C278,-62 284,-68 284,-74"/>
<polyline fill="none" stroke="gray" points="284,-74 284,-124 "/>
<path fill="none" stroke="gray" d="M284,-124C284,-130 278,-136 272,-136"/>
<polyline fill="none" stroke="gray" points="272,-136 202,-136 "/>
<path fill="none" stroke="gray" d="M202,-136C196,-136 190,-130 190,-124"/>
<polyline fill="none" stroke="gray" points="190,-124 190,-74 "/>
<path fill="none" stroke="gray" d="M190,-74C190,-68 196,-62 202,-62"/>
<text text-anchor="middle" x="237" y="-122.1" font-family="Times Roman,serif" font-size="11.00" fill="gray">Server</text>
</g>
<!-- \\Cloud\\Server\\Exception -->
<g id="node3" class="node"><title>\\Cloud\\Server\\Exception</title>
<a xlink:href="Server.Exception.html" xlink:title="Exception" target="_parent">
<polygon fill="none" stroke="black" points="275,-106 199,-106 199,-70 275,-70 275,-106"/>
<text text-anchor="middle" x="237" y="-85.1" font-family="Courier,monospace" font-size="11.00">Exception</text>
</a>
</g>
<!-- \\Exception -->
<g id="node6" class="node"><title>\\Exception</title>
<ellipse fill="none" stroke="black" cx="63" cy="-88" rx="62.9325" ry="18.3848"/>
<text text-anchor="middle" x="63" y="-84.4" font-family="Times Roman,serif" font-size="14.00" fill="gray">\Exception</text>
</g>
<!-- \\Cloud\\Server\\Exception&#45;&gt;\\Exception -->
<g id="edge4" class="edge"><title>\\Cloud\\Server\\Exception&#45;&gt;\\Exception</title>
<path fill="none" stroke="black" d="M198.384,-88C180.06,-88 157.538,-88 136.16,-88"/>
<polygon fill="none" stroke="black" points="136.11,-84.5001 126.11,-88 136.11,-91.5001 136.11,-84.5001"/>
</g>
<!-- \\Cloud\\Server -->
<g id="node4" class="node"><title>\\Cloud\\Server</title>
<a xlink:href="Server.html" xlink:title="Server" target="_parent">
<polygon fill="none" stroke="black" points="265,-52 209,-52 209,-16 265,-16 265,-52"/>
<text text-anchor="middle" x="237" y="-31.1" font-family="Courier,monospace" font-size="11.00">Server</text>
</a>
</g>
</g>
</svg>
