<?xml version="1.0" encoding="UTF-8" standalone="no"?>
<!DOCTYPE svg PUBLIC "-//W3C//DTD SVG 1.0//EN"
 "http://www.w3.org/TR/2001/REC-SVG-20010904/DTD/svg10.dtd" [
 <!ATTLIST svg xmlns:xlink CDATA #FIXED "http://www.w3.org/1999/xlink">
]>
<!-- Generated by Graphviz version 2.12 (Wed Nov 23 19:29:33 UTC 2011)
     For user: (maintenr)  -->
<!-- Title: G Pages: 1 -->
<svg width="3.82in" height="3.11in"
 xmlns="http://www.w3.org/2000/svg" xmlns:xlink="http://www.w3.org/1999/xlink">
<g id="graph0" class="graph" transform="scale(1.33333 1.33333) rotate(0) translate(4 221)">
<title>G</title>
<polygon style="fill:white;stroke:white;" points="-4,4 -4,-221 272,-221 272,4 -4,4"/>
<g id="cluster2" class="cluster"><title>cluster_Library</title>
<polyline style="fill:none;stroke:gray;" points="124,-16 12,-16 "/>
<path style="fill:none;stroke:gray;" d="M12,-16C6,-16 5.34158e-315,-10 5.34158e-315,-4"/>
<polyline style="fill:none;stroke:gray;" points="5.34158e-315,-4 5.34158e-315,-12 "/>
<path style="fill:none;stroke:gray;" d="M5.34158e-315,-12C5.34158e-315,-6 6,-7.75834e-308 12,-7.75834e-308"/>
<polyline style="fill:none;stroke:gray;" points="12,-7.75834e-308 124,-7.75834e-308 "/>
<path style="fill:none;stroke:gray;" d="M124,-7.75834e-308C130,-7.75834e-308 136,-6 136,-12"/>
<polyline style="fill:none;stroke:gray;" points="136,-12 136,-4 "/>
<path style="fill:none;stroke:gray;" d="M136,-4C136,-10 130,-16 124,-16"/>
<text text-anchor="middle" x="198" y="-195" style="font-family:Nimbus Roman No9 L;font-weight:regular;font-size:8.91pt;fill:gray;">Library</text>
</g>
<g id="cluster3" class="cluster"><title>cluster_Library\Cloud</title>
<polyline style="fill:none;stroke:gray;" points="132,-24 12,-24 "/>
<path style="fill:none;stroke:gray;" d="M12,-24C6,-24 2.53813e-269,-30 2.53813e-269,-36"/>
<polyline style="fill:none;stroke:gray;" points="2.53813e-269,-36 2.53813e-269,-202.492 "/>
<path style="fill:none;stroke:gray;" d="M2.53813e-269,-202.492C2.53813e-269,-208.492 6,-214.492 12,-214.492"/>
<polyline style="fill:none;stroke:gray;" points="12,-214.492 132,-214.492 "/>
<path style="fill:none;stroke:gray;" d="M132,-214.492C138,-214.492 144,-208.492 144,-202.492"/>
<polyline style="fill:none;stroke:gray;" points="144,-202.492 144,-36 "/>
<path style="fill:none;stroke:gray;" d="M144,-36C144,-30 138,-24 132,-24"/>
<text text-anchor="middle" x="198" y="-166" style="font-family:Nimbus Roman No9 L;font-weight:regular;font-size:8.91pt;fill:gray;">Cloud</text>
</g>
<g id="cluster4" class="cluster"><title>cluster_Library\Cloud\Server</title>
<polyline style="fill:none;stroke:gray;" points="140,-78 12,-78 "/>
<path style="fill:none;stroke:gray;" d="M12,-78C6,-78 2.53813e-269,-84 2.53813e-269,-90"/>
<polyline style="fill:none;stroke:gray;" points="2.53813e-269,-90 2.53813e-269,-199.446 "/>
<path style="fill:none;stroke:gray;" d="M2.53813e-269,-199.446C2.53813e-269,-205.446 6,-211.446 12,-211.446"/>
<polyline style="fill:none;stroke:gray;" points="12,-211.446 140,-211.446 "/>
<path style="fill:none;stroke:gray;" d="M140,-211.446C146,-211.446 152,-205.446 152,-199.446"/>
<polyline style="fill:none;stroke:gray;" points="152,-199.446 152,-90 "/>
<path style="fill:none;stroke:gray;" d="M152,-90C152,-84 146,-78 140,-78"/>
<text text-anchor="middle" x="198" y="-137" style="font-family:Nimbus Roman No9 L;font-weight:regular;font-size:8.91pt;fill:gray;">Server</text>
</g>
<!-- \\Library\\Cloud\\Server\\Exception -->
<g id="node4" class="node"><title>\\Library\\Cloud\\Server\\Exception</title>
<a xlink:href="Server.Exception.html" xlink:title="Exception" target="_parent">
<polygon style="fill:none;stroke:black;" points="235.192,-122 160.808,-122 160.808,-86 235.192,-86 235.192,-122"/>
<text text-anchor="middle" x="198" y="-100" style="font-family:Nimbus Mono L;font-weight:regular;font-size:8.91pt;">Exception</text>
</a>
</g>
<!-- \\Exception -->
<g id="node8" class="node"><title>\\Exception</title>
<ellipse style="fill:none;stroke:black;" cx="44" cy="-104" rx="42.9635" ry="18"/>
<text text-anchor="middle" x="44" y="-98" style="font-family:Nimbus Roman No9 L;font-weight:regular;font-size:11.34pt;fill:gray;">\Exception</text>
</g>
<!-- \\Library\\Cloud\\Server\\Exception&#45;&gt;\\Exception -->
<g id="edge6" class="edge"><title>\\Library\\Cloud\\Server\\Exception&#45;&gt;\\Exception</title>
<path style="fill:none;stroke:black;" d="M160,-104C141,-104 119,-104 98,-104"/>
<polygon style="fill:none;stroke:black;" points="98,-100.5 88,-104 98,-107.5 98,-100.5"/>
</g>
<!-- \\Library\\Cloud\\Server -->
<g id="node5" class="node"><title>\\Library\\Cloud\\Server</title>
<a xlink:href="Server.html" xlink:title="Server" target="_parent">
<polygon style="fill:none;stroke:black;" points="225.797,-68 170.203,-68 170.203,-32 225.797,-32 225.797,-68"/>
<text text-anchor="middle" x="198" y="-46" style="font-family:Nimbus Mono L;font-weight:regular;font-size:8.91pt;">Server</text>
</a>
</g>
</g>
</svg>
